HIERARCHY
ROOT SpineBase
{
  OFFSET 0.000000 0.000000 0.000000
  CHANNELS 6 Xposition Yposition Zposition Zrotation Xrotation Yrotation
  JOINT SpineMid
  {
    OFFSET 0.000000 27.313395 0.000000
    CHANNELS 3 Zrotation Xrotation Yrotation
    JOINT SpineShoulder
    {
      OFFSET -0.301847 20.473229 -0.642939
      CHANNELS 3 Zrotation Xrotation Yrotation
      JOINT Neck
      {
        OFFSET -0.212849 6.789936 -0.459244
        CHANNELS 3 Zrotation Xrotation Yrotation
        JOINT Head
        {
          OFFSET -0.803862 11.755222 1.157306
          CHANNELS 3 Zrotation Xrotation Yrotation
          End Site
          {
            OFFSET 0 0 0
          }
        }
      }
      JOINT ShoulderLeft
      {
        OFFSET -8.422010 -5.806476 4.937364
        CHANNELS 3 Zrotation Xrotation Yrotation
        JOINT ElbowLeft
        {
          OFFSET 0.068966 -26.915488 8.565873
          CHANNELS 3 Zrotation Xrotation Yrotation
          JOINT WristLeft
          {
            OFFSET -2.657715 -29.006569 2.600247
            CHANNELS 3 Zrotation Xrotation Yrotation
            JOINT HandLeft
            {
              OFFSET 1.299270 -7.593914 -3.288076
              CHANNELS 3 Zrotation Xrotation Yrotation
              JOINT HandTipLeft
              {
                OFFSET -0.173602 -2.000103 -0.552418
                CHANNELS 3 Zrotation Xrotation Yrotation
                End Site
                {
                  OFFSET 0 0 0
                }
              }
              JOINT ThumbLeft
              {
                OFFSET -1.017689 -1.346963 0.322944
                CHANNELS 3 Zrotation Xrotation Yrotation
                End Site
                {
                  OFFSET 0 0 0
                }
              }
            }
          }
        }
      }
      JOINT ShoulderRight
      {
        OFFSET 2.870779 -3.511344 -11.960249
        CHANNELS 3 Zrotation Xrotation Yrotation
        JOINT ElbowRight
        {
          OFFSET 1.406803 -21.577072 -5.103242
          CHANNELS 3 Zrotation Xrotation Yrotation
          JOINT WristRight
          {
            OFFSET -5.266787 -20.756463 -0.001981
            CHANNELS 3 Zrotation Xrotation Yrotation
            JOINT HandRight
            {
              OFFSET -0.614323 -7.487995 2.389791
              CHANNELS 3 Zrotation Xrotation Yrotation
              JOINT HandTipRight
              {
                OFFSET -2.167858 -6.958044 -0.505314
                CHANNELS 3 Zrotation Xrotation Yrotation
                End Site
                {
                  OFFSET 0 0 0
                }
              }
              JOINT ThumbRight
              {
                OFFSET 7.605957 -1.619440 -1.605488
                CHANNELS 3 Zrotation Xrotation Yrotation
                End Site
                {
                  OFFSET 0 0 0
                }
              }
            }
          }
        }
      }
    }
  }
  JOINT HipLeft
  {
    OFFSET -4.213209 0.566982 -0.043568
    CHANNELS 3 Zrotation Xrotation Yrotation
    JOINT KneeLeft
    {
      OFFSET 5.613004 -35.197972 1.429271
      CHANNELS 3 Zrotation Xrotation Yrotation
      JOINT AnkleLeft
      {
        OFFSET 2.247306 -29.812444 7.713491
        CHANNELS 3 Zrotation Xrotation Yrotation
        JOINT FootLeft
        {
          OFFSET -3.960325 -4.495420 -5.109099
          CHANNELS 3 Zrotation Xrotation Yrotation
          End Site
          {
            OFFSET 0 0 0
          }
        }
      }
    }
  }
  JOINT HipRight
  {
    OFFSET 1.485103 0.677921 -5.696185
    CHANNELS 3 Zrotation Xrotation Yrotation
    JOINT KneeRight
    {
      OFFSET 0.314204 -27.153067 -2.784836
      CHANNELS 3 Zrotation Xrotation Yrotation
      JOINT AnkleRight
      {
        OFFSET 4.489848 -36.744735 6.381260
        CHANNELS 3 Zrotation Xrotation Yrotation
        JOINT FootRight
        {
          OFFSET -4.604923 -6.700660 -0.472189
          CHANNELS 3 Zrotation Xrotation Yrotation
          End Site
          {
            OFFSET 0 0 0
          }
        }
      }
    }
  }
}
MOTION
Frames: 8
Frame Time: 0.033333
174.373252 71.451679 389.747705 -0.000000 0.000000 44.769347 -0.000000 0.000000 -44.769347 -0.000000 0.000000 0.000000 -0.000000 0.000000 0.000000 0.000000 0.000000 0.000000 -0.000000 0.000000 0.000000 -0.000000 0.000000 0.000000 -0.000000 0.000000 0.000000 -0.000000 0.000000 0.000000 0.000000 0.000000 0.000000 0.000000 0.000000 0.000000 -0.000000 0.000000 0.000000 -0.000000 0.000000 0.000000 -0.000000 0.000000 0.000000 -0.000000 0.000000 0.000000 0.000000 0.000000 0.000000 0.000000 0.000000 0.000000 -0.000000 0.000000 -44.769347 -0.000000 0.000000 0.000000 -0.000000 0.000000 0.000000 0.000000 0.000000 0.000000 -0.000000 0.000000 -44.769347 -0.000000 0.000000 0.000000 -0.000000 0.000000 0.000000 0.000000 0.000000 0.000000
174.254767 71.182766 389.754865 -0.084082 -0.081166 43.347452 0.116859 0.001308 -43.347513 -0.000000 0.000000 0.000000 -0.000000 0.000000 0.000000 0.000000 0.000000 0.000000 0.758666 -2.966898 0.251416 -0.746648 2.969942 -0.212413 -7.090936 -10.773918 0.586037 3.016628 16.624966 -0.245065 0.000000 0.000000 0.000000 0.000000 0.000000 0.000000 -0.000000 0.000000 0.000000 -0.000000 0.000000 0.000000 -0.889305 0.879104 -0.349761 0.859441 -2.252088 0.795405 0.000000 0.000000 0.000000 0.000000 0.000000 0.000000 1.166291 -0.146927 -43.213503 -1.347824 -1.702934 -0.352860 4.106061 -3.559033 0.287460 0.000000 0.000000 0.000000 0.116859 0.001308 -43.347513 -0.251216 1.038543 0.085711 3.485653 -9.107729 5.663999 0.000000 0.000000 0.000000
174.139192 70.981936 389.749553 -0.167685 -0.148858 42.345499 0.224206 -0.002932 -42.345711 -0.000000 0.000000 0.000000 -0.464455 1.322384 0.141398 0.000000 0.000000 0.000000 1.353299 -5.299346 0.472771 -1.315232 5.308896 -0.349160 -12.815662 -19.671714 -0.064144 5.540465 30.977016 0.093697 0.000000 0.000000 0.000000 0.000000 0.000000 0.000000 0.540784 -0.606156 -0.164719 -1.616109 0.453745 0.217807 -0.632388 1.872223 -0.697580 1.412675 -4.366640 1.552253 0.000000 0.000000 0.000000 0.000000 0.000000 0.000000 1.610590 -0.399989 -42.186483 -1.873784 -2.113704 -0.435037 6.957371 -6.513468 0.392081 0.000000 0.000000 0.000000 0.224206 -0.002932 -42.345711 -0.424917 1.850707 0.159748 6.264394 -15.463188 10.137218 0.000000 0.000000 0.000000
174.026526 70.849190 389.731769 -0.251175 -0.203557 41.773390 0.322929 -0.015521 -41.773792 -0.000000 0.000000 0.000000 -0.582759 1.875000 0.194893 0.000000 0.000000 0.000000 1.769722 -6.972269 0.640738 -2.303865 8.198293 -0.514184 -16.368361 -27.296831 -1.492711 8.638715 40.896559 -0.366480 0.000000 0.000000 0.000000 0.000000 0.000000 0.000000 0.677981 -0.902907 -0.214197 -2.265725 0.855851 0.258906 -0.866712 2.569298 -0.949615 1.645733 -6.365289 2.253653 0.000000 0.000000 0.000000 0.000000 0.000000 0.000000 1.381291 -0.814812 -41.695210 -1.584312 -1.206442 -0.225226 8.510429 -8.975639 0.277295 0.000000 0.000000 0.000000 -0.741490 -0.392019 -41.733302 0.024982 3.426818 0.179389 7.841251 -19.336518 13.031901 0.000000 0.000000 0.000000
173.916770 70.784528 389.701513 -0.334913 -0.245621 41.629730 0.413501 -0.038900 -41.630307 -0.000000 0.000000 0.000000 -0.622261 2.351206 0.234451 0.000000 0.000000 0.000000 1.998027 -7.975857 0.738350 -2.842617 9.975602 -0.584637 -18.379875 -32.089964 -2.932356 13.590906 45.171457 -3.228918 0.000000 0.000000 0.000000 0.000000 0.000000 0.000000 0.725723 -1.194313 -0.242449 -2.810107 1.370804 0.256340 -1.042333 3.105359 -1.143334 1.537101 -8.266911 2.882804 0.000000 0.000000 0.000000 0.000000 0.000000 0.000000 0.453445 -1.424769 -41.751959 -0.952761 1.007258 0.130537 9.284122 -10.969929 0.015365 0.000000 0.000000 0.000000 -0.906361 -0.562320 -41.586333 0.104821 4.065872 0.216835 7.920878 -21.052987 14.151282 0.000000 0.000000 0.000000
173.809924 70.787949 389.658784 -0.419259 -0.275300 41.903028 0.495908 -0.075116 -41.903710 -0.000000 0.000000 0.000000 -0.581469 2.748539 0.258665 0.000000 0.000000 0.000000 2.032873 -8.308409 0.755854 -3.262287 11.255480 -0.628318 -18.294080 -34.907833 -3.979984 19.226108 43.771452 -7.569880 0.000000 0.000000 0.000000 0.000000 0.000000 0.000000 0.683958 -1.479684 -0.250079 -3.249422 1.995801 0.211133 -1.155810 3.479453 -1.282138 1.057358 -10.087605 3.422057 0.000000 0.000000 0.000000 0.000000 0.000000 0.000000 -1.275724 -2.244305 -42.379913 1.385817 4.742267 0.891393 7.909411 -12.737026 -0.803608 0.000000 0.000000 0.000000 -1.034197 -0.744342 -41.861220 0.220622 4.453977 0.239548 6.343871 -20.707065 13.404246 0.000000 0.000000 0.000000
173.682266 70.909148 389.597320 -0.550432 -0.287111 42.862824 0.598761 -0.163986 -42.863347 -0.000000 0.000000 0.000000 -0.599844 3.070016 0.284469 0.000000 0.000000 0.000000 1.766633 -7.636011 0.646818 -3.600387 12.054819 -0.663329 -12.569090 -31.361350 -2.736752 22.065155 31.405376 -10.311558 0.000000 0.000000 0.000000 0.000000 0.000000 0.000000 0.351000 -1.968105 -0.206114 -3.480526 3.533102 -0.030324 -0.997179 2.373988 -1.174507 -2.031854 -10.890905 3.564307 0.000000 0.000000 0.000000 0.000000 0.000000 0.000000 -4.879245 -3.576401 -44.104985 4.862497 11.601489 1.736906 4.213414 -13.713607 -1.741410 0.000000 0.000000 0.000000 -1.035095 -1.019353 -42.837142 0.237307 4.560226 0.248424 2.614290 -16.832247 9.822316 0.000000 0.000000 0.000000
173.561697 71.059694 389.545756 -0.654427 -0.289253 44.473521 0.669624 -0.252080 -44.473700 -0.000000 0.000000 0.000000 -0.306508 3.185061 0.255905 0.000000 0.000000 0.000000 1.352404 -6.341099 0.480587 -3.652490 11.866421 -0.677506 -7.244525 -29.928297 -2.525690 20.789335 27.305675 -9.756210 0.000000 0.000000 0.000000 0.000000 0.000000 0.000000 0.045103 -2.106876 -0.147859 -3.567024 4.194345 -0.186176 -1.104199 3.119241 -1.277353 -1.423005 -13.626371 4.155394 0.000000 0.000000 0.000000 0.000000 0.000000 0.000000 -9.838265 -4.950972 -46.840523 8.920511 19.785318 2.185948 2.075025 -15.842476 -3.555965 0.000000 0.000000 0.000000 -1.001940 -1.249093 -44.466676 0.413675 4.100625 0.224832 1.274864 -14.317870 8.283913 0.000000 0.000000 0.000000
